<mxfile host="Electron" modified="2023-09-25T12:59:31.747Z" agent="Mozilla/5.0 (Windows NT 10.0; Win64; x64) AppleWebKit/537.36 (KHTML, like Gecko) draw.io/21.6.8 Chrome/114.0.5735.289 Electron/25.5.0 Safari/537.36" etag="7vBPjmjUez43uKx5uIxg" version="21.6.8" type="device">
  <diagram name="Page-1" id="sT0smSkK_XDG-mm9DNYn">
    <mxGraphModel dx="1036" dy="623" grid="1" gridSize="10" guides="1" tooltips="1" connect="1" arrows="1" fold="1" page="1" pageScale="1" pageWidth="850" pageHeight="1100" math="0" shadow="0">
      <root>
        <mxCell id="0" />
        <mxCell id="1" parent="0" />
        <mxCell id="tCSEXiGMZgvo9ocQJjHr-1" value="" style="ellipse;html=1;shape=startState;fillColor=#000000;strokeColor=#ff0000;" parent="1" vertex="1">
          <mxGeometry x="380" y="110" width="30" height="30" as="geometry" />
        </mxCell>
        <mxCell id="tCSEXiGMZgvo9ocQJjHr-2" value="" style="edgeStyle=orthogonalEdgeStyle;html=1;verticalAlign=bottom;endArrow=open;endSize=8;strokeColor=#FF0000;rounded=0;" parent="1" source="tCSEXiGMZgvo9ocQJjHr-1" edge="1">
          <mxGeometry relative="1" as="geometry">
            <mxPoint x="395" y="170" as="targetPoint" />
          </mxGeometry>
        </mxCell>
        <mxCell id="tCSEXiGMZgvo9ocQJjHr-3" value="Login" style="rounded=1;whiteSpace=wrap;html=1;arcSize=40;fontColor=#000000;fillColor=#ffffc0;strokeColor=#ff0000;" parent="1" vertex="1">
          <mxGeometry x="335" y="170" width="120" height="40" as="geometry" />
        </mxCell>
        <mxCell id="tCSEXiGMZgvo9ocQJjHr-4" value="" style="edgeStyle=orthogonalEdgeStyle;html=1;verticalAlign=bottom;endArrow=open;endSize=8;strokeColor=#FF0000;rounded=0;" parent="1" source="tCSEXiGMZgvo9ocQJjHr-3" edge="1">
          <mxGeometry relative="1" as="geometry">
            <mxPoint x="395" y="240" as="targetPoint" />
          </mxGeometry>
        </mxCell>
        <mxCell id="tCSEXiGMZgvo9ocQJjHr-5" value="Order Manage" style="rounded=1;whiteSpace=wrap;html=1;arcSize=40;fontColor=#000000;fillColor=#ffffc0;strokeColor=#ff0000;" parent="1" vertex="1">
          <mxGeometry x="335" y="240" width="120" height="40" as="geometry" />
        </mxCell>
        <mxCell id="tCSEXiGMZgvo9ocQJjHr-6" value="" style="edgeStyle=orthogonalEdgeStyle;html=1;verticalAlign=bottom;endArrow=open;endSize=8;strokeColor=#FF0000;rounded=0;" parent="1" source="tCSEXiGMZgvo9ocQJjHr-5" edge="1">
          <mxGeometry relative="1" as="geometry">
            <mxPoint x="395" y="320" as="targetPoint" />
          </mxGeometry>
        </mxCell>
        <mxCell id="tCSEXiGMZgvo9ocQJjHr-12" value="" style="edgeStyle=orthogonalEdgeStyle;rounded=0;orthogonalLoop=1;jettySize=auto;html=1;strokeColor=#FF0000;" parent="1" source="tCSEXiGMZgvo9ocQJjHr-7" target="tCSEXiGMZgvo9ocQJjHr-10" edge="1">
          <mxGeometry relative="1" as="geometry" />
        </mxCell>
        <mxCell id="tCSEXiGMZgvo9ocQJjHr-15" value="" style="edgeStyle=orthogonalEdgeStyle;rounded=0;orthogonalLoop=1;jettySize=auto;html=1;strokeColor=#FF0000;" parent="1" source="tCSEXiGMZgvo9ocQJjHr-7" target="tCSEXiGMZgvo9ocQJjHr-13" edge="1">
          <mxGeometry relative="1" as="geometry" />
        </mxCell>
        <mxCell id="tCSEXiGMZgvo9ocQJjHr-7" value="" style="rhombus;whiteSpace=wrap;html=1;" parent="1" vertex="1">
          <mxGeometry x="355" y="320" width="80" height="50" as="geometry" />
        </mxCell>
        <mxCell id="tCSEXiGMZgvo9ocQJjHr-10" value="New Order&lt;br&gt;Request" style="rounded=1;whiteSpace=wrap;html=1;arcSize=40;fontColor=#000000;fillColor=#ffffc0;strokeColor=#ff0000;" parent="1" vertex="1">
          <mxGeometry x="170" y="325" width="120" height="40" as="geometry" />
        </mxCell>
        <mxCell id="tCSEXiGMZgvo9ocQJjHr-11" value="" style="edgeStyle=orthogonalEdgeStyle;html=1;verticalAlign=bottom;endArrow=open;endSize=8;strokeColor=#FF0000;rounded=0;" parent="1" source="tCSEXiGMZgvo9ocQJjHr-10" edge="1">
          <mxGeometry relative="1" as="geometry">
            <mxPoint x="230" y="425" as="targetPoint" />
          </mxGeometry>
        </mxCell>
        <mxCell id="tCSEXiGMZgvo9ocQJjHr-13" value="All Order List" style="rounded=1;whiteSpace=wrap;html=1;arcSize=40;fontColor=#000000;fillColor=#ffffc0;strokeColor=#ff0000;" parent="1" vertex="1">
          <mxGeometry x="500" y="325" width="120" height="40" as="geometry" />
        </mxCell>
        <mxCell id="tCSEXiGMZgvo9ocQJjHr-14" value="" style="edgeStyle=orthogonalEdgeStyle;html=1;verticalAlign=bottom;endArrow=open;endSize=8;strokeColor=#FF0000;rounded=0;" parent="1" source="tCSEXiGMZgvo9ocQJjHr-13" edge="1">
          <mxGeometry relative="1" as="geometry">
            <mxPoint x="560" y="425" as="targetPoint" />
          </mxGeometry>
        </mxCell>
        <mxCell id="tCSEXiGMZgvo9ocQJjHr-16" value="Check Stock" style="rounded=1;whiteSpace=wrap;html=1;arcSize=40;fontColor=#000000;fillColor=#ffffc0;strokeColor=#ff0000;" parent="1" vertex="1">
          <mxGeometry x="170" y="425" width="120" height="40" as="geometry" />
        </mxCell>
        <mxCell id="tCSEXiGMZgvo9ocQJjHr-17" value="" style="edgeStyle=orthogonalEdgeStyle;html=1;verticalAlign=bottom;endArrow=open;endSize=8;strokeColor=#FF0000;rounded=0;" parent="1" source="tCSEXiGMZgvo9ocQJjHr-16" edge="1">
          <mxGeometry relative="1" as="geometry">
            <mxPoint x="230" y="510" as="targetPoint" />
          </mxGeometry>
        </mxCell>
        <mxCell id="tCSEXiGMZgvo9ocQJjHr-32" value="" style="edgeStyle=orthogonalEdgeStyle;rounded=0;orthogonalLoop=1;jettySize=auto;html=1;strokeColor=#FF0000;" parent="1" source="tCSEXiGMZgvo9ocQJjHr-21" target="tCSEXiGMZgvo9ocQJjHr-30" edge="1">
          <mxGeometry relative="1" as="geometry" />
        </mxCell>
        <mxCell id="tCSEXiGMZgvo9ocQJjHr-21" value="is available" style="rhombus;whiteSpace=wrap;html=1;fontColor=#000000;fillColor=#ffffc0;strokeColor=#ff0000;" parent="1" vertex="1">
          <mxGeometry x="190" y="510" width="80" height="40" as="geometry" />
        </mxCell>
        <mxCell id="tCSEXiGMZgvo9ocQJjHr-23" value="yes" style="edgeStyle=orthogonalEdgeStyle;html=1;align=left;verticalAlign=top;endArrow=open;endSize=8;strokeColor=#FF0000;rounded=0;" parent="1" source="tCSEXiGMZgvo9ocQJjHr-21" edge="1">
          <mxGeometry x="-1" relative="1" as="geometry">
            <mxPoint x="230" y="610" as="targetPoint" />
          </mxGeometry>
        </mxCell>
        <mxCell id="tCSEXiGMZgvo9ocQJjHr-24" value="Accept Order" style="rounded=1;whiteSpace=wrap;html=1;arcSize=40;fontColor=#000000;fillColor=#ffffc0;strokeColor=#ff0000;" parent="1" vertex="1">
          <mxGeometry x="170" y="610" width="120" height="40" as="geometry" />
        </mxCell>
        <mxCell id="tCSEXiGMZgvo9ocQJjHr-25" value="" style="edgeStyle=orthogonalEdgeStyle;html=1;verticalAlign=bottom;endArrow=open;endSize=8;strokeColor=#FF0000;rounded=0;entryX=0;entryY=0.5;entryDx=0;entryDy=0;exitX=0.5;exitY=1;exitDx=0;exitDy=0;" parent="1" source="tCSEXiGMZgvo9ocQJjHr-24" target="tCSEXiGMZgvo9ocQJjHr-44" edge="1">
          <mxGeometry relative="1" as="geometry">
            <mxPoint x="230" y="710" as="targetPoint" />
          </mxGeometry>
        </mxCell>
        <mxCell id="tCSEXiGMZgvo9ocQJjHr-58" style="edgeStyle=orthogonalEdgeStyle;rounded=0;orthogonalLoop=1;jettySize=auto;html=1;entryX=0.5;entryY=0;entryDx=0;entryDy=0;strokeColor=#FF0000;" parent="1" source="tCSEXiGMZgvo9ocQJjHr-30" target="tCSEXiGMZgvo9ocQJjHr-44" edge="1">
          <mxGeometry relative="1" as="geometry" />
        </mxCell>
        <mxCell id="tCSEXiGMZgvo9ocQJjHr-34" value="Select Order" style="rounded=1;whiteSpace=wrap;html=1;arcSize=40;fontColor=#000000;fillColor=#ffffc0;strokeColor=#ff0000;" parent="1" vertex="1">
          <mxGeometry x="500" y="425" width="120" height="40" as="geometry" />
        </mxCell>
        <mxCell id="tCSEXiGMZgvo9ocQJjHr-35" value="" style="edgeStyle=orthogonalEdgeStyle;html=1;verticalAlign=bottom;endArrow=open;endSize=8;strokeColor=#FF0000;rounded=0;" parent="1" source="tCSEXiGMZgvo9ocQJjHr-34" edge="1">
          <mxGeometry relative="1" as="geometry">
            <mxPoint x="560" y="510" as="targetPoint" />
          </mxGeometry>
        </mxCell>
        <mxCell id="tCSEXiGMZgvo9ocQJjHr-41" value="" style="edgeStyle=orthogonalEdgeStyle;html=1;verticalAlign=bottom;endArrow=open;endSize=8;strokeColor=#FF0000;rounded=0;" parent="1" source="tCSEXiGMZgvo9ocQJjHr-40" edge="1">
          <mxGeometry relative="1" as="geometry">
            <mxPoint x="560" y="600" as="targetPoint" />
          </mxGeometry>
        </mxCell>
        <mxCell id="tCSEXiGMZgvo9ocQJjHr-44" value="" style="ellipse;html=1;shape=endState;fillColor=#000000;strokeColor=#ff0000;" parent="1" vertex="1">
          <mxGeometry x="380" y="790" width="30" height="30" as="geometry" />
        </mxCell>
        <mxCell id="tCSEXiGMZgvo9ocQJjHr-45" value="No" style="text;html=1;align=center;verticalAlign=middle;resizable=0;points=[];autosize=1;strokeColor=none;fillColor=none;" parent="1" vertex="1">
          <mxGeometry x="270" y="508" width="40" height="30" as="geometry" />
        </mxCell>
        <mxCell id="tCSEXiGMZgvo9ocQJjHr-46" value="" style="swimlane;startSize=0;" parent="1" vertex="1">
          <mxGeometry x="90" y="80" width="610" height="830" as="geometry" />
        </mxCell>
        <mxCell id="tCSEXiGMZgvo9ocQJjHr-40" value="Cancel Order" style="rounded=1;whiteSpace=wrap;html=1;arcSize=40;fontColor=#000000;fillColor=#ffffc0;strokeColor=#ff0000;" parent="tCSEXiGMZgvo9ocQJjHr-46" vertex="1">
          <mxGeometry x="410" y="430" width="120" height="40" as="geometry" />
        </mxCell>
        <mxCell id="tCSEXiGMZgvo9ocQJjHr-55" value="is placed" style="rhombus;whiteSpace=wrap;html=1;fontColor=#000000;fillColor=#ffffc0;strokeColor=#ff0000;" parent="tCSEXiGMZgvo9ocQJjHr-46" vertex="1">
          <mxGeometry x="430" y="520" width="80" height="40" as="geometry" />
        </mxCell>
        <mxCell id="tCSEXiGMZgvo9ocQJjHr-30" value="Reject order" style="rounded=1;whiteSpace=wrap;html=1;arcSize=40;fontColor=#000000;fillColor=#ffffc0;strokeColor=#ff0000;" parent="tCSEXiGMZgvo9ocQJjHr-46" vertex="1">
          <mxGeometry x="245" y="430" width="120" height="40" as="geometry" />
        </mxCell>
        <mxCell id="o-56_83hpDns0dEC12hR-1" value="&lt;font style=&quot;font-size: 15px;&quot;&gt;Figure: Manage Product Activity Diagram&lt;/font&gt;" style="text;html=1;align=center;verticalAlign=middle;resizable=0;points=[];autosize=1;strokeColor=none;fillColor=none;" vertex="1" parent="tCSEXiGMZgvo9ocQJjHr-46">
          <mxGeometry x="155" y="758" width="300" height="30" as="geometry" />
        </mxCell>
        <mxCell id="tCSEXiGMZgvo9ocQJjHr-57" value="no" style="edgeStyle=orthogonalEdgeStyle;html=1;align=left;verticalAlign=top;endArrow=open;endSize=8;strokeColor=#ff0000;rounded=0;entryX=1;entryY=0.5;entryDx=0;entryDy=0;exitX=0.5;exitY=1;exitDx=0;exitDy=0;" parent="1" source="tCSEXiGMZgvo9ocQJjHr-55" target="tCSEXiGMZgvo9ocQJjHr-44" edge="1">
          <mxGeometry x="-1" relative="1" as="geometry">
            <mxPoint x="560" y="700" as="targetPoint" />
          </mxGeometry>
        </mxCell>
        <mxCell id="tCSEXiGMZgvo9ocQJjHr-56" value="yes" style="edgeStyle=orthogonalEdgeStyle;html=1;align=left;verticalAlign=bottom;endArrow=open;endSize=8;strokeColor=#ff0000;rounded=0;entryX=1;entryY=0.5;entryDx=0;entryDy=0;exitX=1;exitY=0.5;exitDx=0;exitDy=0;" parent="1" source="tCSEXiGMZgvo9ocQJjHr-55" target="tCSEXiGMZgvo9ocQJjHr-13" edge="1">
          <mxGeometry x="-1" relative="1" as="geometry">
            <mxPoint x="700" y="620" as="targetPoint" />
            <Array as="points">
              <mxPoint x="640" y="620" />
              <mxPoint x="640" y="345" />
            </Array>
          </mxGeometry>
        </mxCell>
      </root>
    </mxGraphModel>
  </diagram>
</mxfile>
